<!-- Generated by IcoMoon.io -->
<svg version="1.1" xmlns="http://www.w3.org/2000/svg" width="24" height="24" viewBox="0 0 768 768">
<title></title>
<g id="icomoon-ignore">
</g>
<path fill="#e04f5f" d="M308.854 69.504c-36.182 8.349-100.195 47.314-144.724 91.844-133.591 136.375-133.591 308.931 0 442.522 133.591 136.375 306.147 133.591 442.522-2.784 222.653-222.652 16.698-587.248-297.798-531.583zM434.096 264.323c38.963-36.182 58.446-38.963 83.495-13.916s22.265 44.531-13.916 83.495c-41.747 47.315-41.747 52.88 0 100.195 36.182 38.963 38.963 58.446 13.916 83.495s-44.531 22.265-83.495-13.916c-47.314-41.747-52.88-41.747-100.195 0-38.963 36.182-58.446 38.963-83.495 13.916s-22.265-44.531 13.916-83.495c41.747-47.314 41.747-52.88 0-100.195-66.796-72.361-2.784-136.375 69.578-69.578 47.315 41.747 52.88 41.747 100.195 0z"></path>
</svg>
